<svg xmlns="http://www.w3.org/2000/svg" version="1.1" xmlns:xlink="http://www.w3.org/1999/xlink" xmlns:svgjs="http://svgjs.dev/svgjs" width="1500" height="488" viewBox="0 0 1500 488"><g transform="matrix(1,0,0,1,-0.9090909090909918,0.29331635641028697)"><svg viewBox="0 0 396 129" data-background-color="#ffffff" preserveAspectRatio="xMidYMid meet" height="488" width="1500" xmlns="http://www.w3.org/2000/svg" xmlns:xlink="http://www.w3.org/1999/xlink"><g id="tight-bounds" transform="matrix(1,0,0,1,0.2400000000000091,-0.07753649585436051)"><svg viewBox="0 0 395.52 129.15507299170875" height="129.15507299170875" width="395.52"><g><svg viewBox="0 0 652.2359267456184 212.98437178055508" height="129.15507299170875" width="395.52"><g transform="matrix(1,0,0,1,0,35.64868400575858)"><svg viewBox="0 0 395.52 141.68700376903791" height="141.68700376903791" width="395.52"><g id="textblocktransform"><svg viewBox="0 0 395.52 141.68700376903791" height="141.68700376903791" width="395.52" id="textblock"><g><svg viewBox="0 0 395.52 92.62177215189874" height="92.62177215189874" width="395.52"><g transform="matrix(1,0,0,1,0,0)"><svg width="395.52" viewBox="5.37 -38.84 165.85999999999999 38.84" height="92.62177215189874" data-palette-color="#556970"><g class="wordmark-text-0" data-fill-palette-color="primary" id="text-0"><path d="M5.37 0L5.37-37.01 11.21-37.01 11.21-27.2 18.31-35.11Q19.09-36.04 20.23-36.52 21.36-37.01 22.53-37.01L22.53-37.01Q23.56-37.01 24.39-36.57 25.22-36.13 25.81-35.36 26.39-34.59 26.71-33.56 27.03-32.52 27.03-31.35L27.03-31.35 27.03-27.2 33.45-35.11Q34.16-36.08 35.34-36.55 36.52-37.01 37.67-37.01L37.67-37.01Q38.7-37.01 39.53-36.57 40.36-36.13 40.94-35.36 41.53-34.59 41.85-33.56 42.16-32.52 42.16-31.35L42.16-31.35 42.16-4.17 47.44-4.17Q47.34-3.32 46.96-2.55 46.58-1.78 46.01-1.22 45.43-0.66 44.7-0.33 43.97 0 43.16 0L43.16 0 40.87 0Q39.92 0 39.1-0.49 38.28-0.98 37.68-1.81 37.08-2.64 36.74-3.76 36.4-4.88 36.4-6.15L36.4-6.15 36.4-32.23 27.03-21.02 27.03 0 21.26 0 21.26-32.23 11.21-21.02 11.21 0 5.37 0ZM53.29-6.15L53.29-30.81Q53.29-32.1 53.66-33.24 54.03-34.38 54.66-35.22 55.3-36.06 56.13-36.54 56.96-37.01 57.91-37.01L57.91-37.01 71.48-37.01Q72.43-37.01 73.28-36.54 74.12-36.06 74.75-35.22 75.39-34.38 75.75-33.24 76.12-32.1 76.12-30.81L76.12-30.81 76.12-21.26 70.31-21.26 70.31-32.89 59.08-32.89 59.08-4.17 77.88-4.17Q77.78-3.32 77.4-2.55 77.02-1.78 76.45-1.22 75.88-0.66 75.14-0.33 74.41 0 73.61 0L73.61 0 57.91 0Q56.96 0 56.13-0.49 55.3-0.98 54.66-1.81 54.03-2.64 53.66-3.76 53.29-4.88 53.29-6.15L53.29-6.15ZM85.22-6.2L85.22-25.56 91.06-25.56 91.06-4.17 101.14-4.17 101.14-25.56 106.95-25.56 106.95-4.17 111.91-4.17Q111.81-3.32 111.43-2.55 111.05-1.78 110.48-1.22 109.91-0.66 109.17-0.33 108.44 0 107.64 0L107.64 0 103.05 0 101.14-3.1Q100.87-2.42 100.46-1.84 100.04-1.27 99.52-0.87 98.99-0.46 98.42-0.23 97.85 0 97.31 0L97.31 0 89.86 0Q88.91 0 88.06-0.49 87.2-0.98 86.58-1.82 85.96-2.66 85.59-3.78 85.22-4.91 85.22-6.2L85.22-6.2ZM116.35 0L116.35-38.84 122.16-38.84 122.16-22.73Q122.84-24.05 123.87-24.8 124.89-25.56 126.09-25.56L126.09-25.56 133.46-25.56Q134.42-25.56 135.25-25.07 136.08-24.58 136.71-23.74 137.35-22.9 137.71-21.78 138.08-20.65 138.08-19.36L138.08-19.36 138.08-4.17 143.23-4.17Q143.13-3.32 142.75-2.55 142.38-1.78 141.8-1.22 141.23-0.66 140.5-0.33 139.76 0 138.96 0L138.96 0 126.09 0Q124.89 0 123.88-0.74 122.87-1.49 122.16-2.76L122.16-2.76 122.16 0 116.35 0ZM122.16-4.17L132.27-4.17 132.27-21.39 122.16-21.39 122.16-4.17ZM147.48-6.2L147.48-19.36Q147.48-20.65 147.84-21.78 148.21-22.9 148.83-23.74 149.45-24.58 150.31-25.07 151.16-25.56 152.11-25.56L152.11-25.56 165.08-25.56Q166.03-25.56 166.87-25.07 167.71-24.58 168.35-23.74 168.98-22.9 169.35-21.78 169.72-20.65 169.72-19.36L169.72-19.36 169.72-11.23 153.31-11.23 153.31-4.17 171.23-4.17Q171.13-3.32 170.75-2.55 170.38-1.78 169.8-1.22 169.23-0.66 168.5-0.33 167.76 0 166.96 0L166.96 0 152.11 0Q151.16 0 150.31-0.49 149.45-0.98 148.83-1.82 148.21-2.66 147.84-3.78 147.48-4.91 147.48-6.2L147.48-6.2ZM153.31-14.65L163.88-14.65 163.88-21.39 153.31-21.39 153.31-14.65Z" fill="#556970" data-fill-palette-color="primary"></path></g></svg></g></svg></g><g transform="matrix(1,0,0,1,163.310208,114.4875496344304)"><svg viewBox="0 0 232.209792 27.199454134607514" height="27.199454134607514" width="232.209792"><g transform="matrix(1,0,0,1,0,0)"><svg width="232.209792" viewBox="4.05 -33.45 366.21 42.900000000000006" height="27.199454134607514" data-palette-color="#556970"><path d="M14.3 0.45Q9.55 0.45 6.8-0.5 4.05-1.45 4.05-3.7L4.05-3.7 4.05-30.7 22.6-30.7 22.6-27.8 7.15-27.8 7.15-16.8 21.15-16.8 21.15-14 7.15-14 7.15-3.05Q10.35-2.45 14.45-2.45L14.45-2.45Q18.95-2.45 22.45-3.25L22.45-3.25 23.15-0.5Q19.55 0.45 14.3 0.45L14.3 0.45ZM33.6 0.35Q32.4-0.1 31.12-1.4 29.85-2.7 29.85-3.8L29.85-3.8 29.85-33.45 32.8-33.45 32.8-4.3Q32.8-3.5 32.87-3.08 32.95-2.65 33.2-2.2L33.2-2.2 33.9-2.2 37-3.7 38.3-2.05Q37.5-1.1 36.25-0.45 35 0.2 33.6 0.35L33.6 0.35ZM52.4 0.45Q42.3 0.45 42.3-11.55L42.3-11.55Q42.3-17.3 44.87-20.55 47.45-23.8 52.4-23.8L52.4-23.8Q56.5-23.8 58.7-21.35 60.9-18.9 60.9-14.55L60.9-14.55Q60.9-14.05 60.8-12.95L60.8-12.95 58.25-10.4 45.25-10.5Q45.34-6.35 47.12-4.28 48.9-2.2 52.55-2.2L52.55-2.2Q54.75-2.2 56.3-2.68 57.84-3.15 59.5-4.15L59.5-4.15 60.5-1.8Q58.65-0.7 56.82-0.13 55 0.45 52.4 0.45L52.4 0.45ZM45.2-12.75L57.8-12.95Q58.09-14.15 58.09-15.35L58.09-15.35Q58.09-18.05 56.59-19.6 55.09-21.15 52.2-21.15L52.2-21.15Q48.5-21.15 46.95-19.1 45.4-17.05 45.2-12.75L45.2-12.75ZM72.64 0Q68.39-9.9 64.44-23.25L64.44-23.25 67.49-23.55Q71.14-10.65 74.34-2.85L74.34-2.85 74.79-2.85Q78.14-11.05 81.69-23.55L81.69-23.55 84.64-23.25Q80.79-10.55 76.34 0L76.34 0 72.64 0ZM94.44 0.45Q91.19 0.45 89.47-1.13 87.74-2.7 87.74-5.4L87.74-5.4Q87.74-9.15 90.49-11.03 93.24-12.9 98.19-12.9L98.19-12.9Q99.84-12.9 102.04-12.7L102.04-12.7 102.04-16.1Q102.04-19.1 100.84-20.23 99.64-21.35 96.64-21.35L96.64-21.35Q94.54-21.35 92.79-21.1L92.79-21.1 92.29-17.5 90.04-17.5Q89.49-19.05 89.49-20.55L89.49-20.55 89.49-21.5Q91.09-22.4 93.42-23.1 95.74-23.8 97.84-23.8L97.84-23.8Q101.29-23.8 103.19-21.93 105.09-20.05 105.09-16.55L105.09-16.55 105.09 0 102.49 0 102.29-3.3 101.89-3.3Q100.59-1.55 98.67-0.55 96.74 0.45 94.44 0.45L94.44 0.45ZM94.94-2Q97.14-2 99.04-3.05 100.94-4.1 102.19-5.95L102.19-5.95 102.19-10.4Q99.94-10.8 97.19-10.8L97.19-10.8Q93.89-10.8 92.04-10.25L92.04-10.25Q91.44-9.1 91.17-8.08 90.89-7.05 90.89-5.85L90.89-5.85Q90.89-3.7 91.92-2.85 92.94-2 94.94-2L94.94-2ZM120.84 0.3Q118.99 0.3 117.64-0.05L117.64-0.05Q114.19-1.95 114.19-4.7L114.19-4.7 114.19-20.85 110.09-20.85 110.49-23.4 114.19-23.4 114.19-29.8 117.09-29.8 117.09-23.4 124.89-23.4 124.49-20.85 117.09-20.85 117.09-5.35Q117.09-4.05 117.54-2.85L117.54-2.85Q118.94-2.4 120.34-2.4L120.34-2.4Q121.24-2.4 122.41-2.68 123.59-2.95 124.54-3.35L124.54-3.35 125.39-0.85Q124.54-0.4 123.24-0.05 121.94 0.3 120.84 0.3L120.84 0.3ZM139.89 0.45Q129.79 0.45 129.79-11.55L129.79-11.55Q129.79-17.3 132.36-20.55 134.94-23.8 139.89-23.8L139.89-23.8Q143.99-23.8 146.19-21.35 148.39-18.9 148.39-14.55L148.39-14.55Q148.39-14.05 148.29-12.95L148.29-12.95 145.74-10.4 132.74-10.5Q132.84-6.35 134.61-4.28 136.39-2.2 140.04-2.2L140.04-2.2Q142.24-2.2 143.79-2.68 145.34-3.15 146.99-4.15L146.99-4.15 147.99-1.8Q146.14-0.7 144.31-0.13 142.49 0.45 139.89 0.45L139.89 0.45ZM132.69-12.75L145.29-12.95Q145.59-14.15 145.59-15.35L145.59-15.35Q145.59-18.05 144.09-19.6 142.59-21.15 139.69-21.15L139.69-21.15Q135.99-21.15 134.44-19.1 132.89-17.05 132.69-12.75L132.69-12.75ZM172.78 9.45Q170.38 9.45 168.68 8.6L168.68 8.6 168.68 7.35Q168.68 5.75 169.13 4.4L169.13 4.4 171.33 4.4 171.33 6.75Q172.23 6.9 173.43 6.9L173.43 6.9Q174.23 6.9 175.63 6.7L175.63 6.7Q176.73 4.05 178.58-1.1L178.58-1.1 175.23-1.1Q172.63-7.45 170.88-12.53 169.13-17.6 167.58-23.3L167.58-23.3 170.58-23.6Q173.33-13.2 176.98-3.75L176.98-3.75 179.48-3.75Q182.63-13.2 185.03-23.6L185.03-23.6 188.08-23.3Q186.08-15.2 183.68-7.63 181.28-0.05 178.88 5.7L178.88 5.7Q178.08 7.55 176.43 8.5 174.78 9.45 172.78 9.45L172.78 9.45ZM200.98 0.45Q196.13 0.45 193.88-2.68 191.63-5.8 191.63-11.45L191.63-11.45Q191.63-17.35 194.03-20.68 196.43-24 202.13-24L202.13-24Q206.93-24 209.2-20.78 211.48-17.55 211.48-11.85L211.48-11.85Q211.48-6 209.08-2.78 206.68 0.45 200.98 0.45L200.98 0.45ZM201.83-2.2Q204.83-2.2 206.93-3.25L206.93-3.25Q208.48-6 208.48-11.25L208.48-11.25Q208.48-16.55 206.9-18.93 205.33-21.3 201.28-21.3L201.28-21.3Q198.13-21.3 196.18-20.25L196.18-20.25Q195.48-18.95 195.05-16.78 194.63-14.6 194.63-12L194.63-12Q194.63-8.5 195.28-6.38 195.93-4.25 197.5-3.23 199.08-2.2 201.83-2.2L201.83-2.2ZM224.18 0.45Q221.03 0.45 219.5-0.83 217.98-2.1 217.98-5L217.98-5 217.98-23.4 220.98-23.4 220.98-2.8Q222.78-2.25 224.68-2.25L224.68-2.25Q227.18-2.25 229.25-3.23 231.33-4.2 232.78-5.85L232.78-5.85 232.78-23.4 235.78-23.4 235.78 0 233.23 0 233.03-3.6 232.63-3.6Q230.78-1.6 228.78-0.58 226.78 0.45 224.18 0.45L224.18 0.45ZM243.77 0L243.77-23.3 246.22-23.3 246.47-18.8 246.92-18.8Q248.07-21 250.15-22.3 252.22-23.6 254.57-23.6L254.57-23.6Q254.92-23.6 255.45-23.23 255.97-22.85 256.17-22.5L256.17-22.5 255.82-20.15 253.77-20.15Q251.22-20.15 249.4-19 247.57-17.85 246.77-15.75L246.77-15.75 246.77 0 243.77 0ZM282.92 0.45Q278.57 0.45 275.22-1.25L275.22-1.25 276.17-3.7Q279.47-2.1 283.27-2.1L283.27-2.1Q285.87-2.1 287.72-2.7L287.72-2.7Q288.32-4.15 288.32-5.9L288.32-5.9Q288.32-7.35 287.92-8.13 287.52-8.9 286.49-9.4 285.47-9.9 283.37-10.35L283.37-10.35Q279.37-11.25 277.39-12.7 275.42-14.15 275.42-17.05L275.42-17.05Q275.42-19.9 277.49-21.85 279.57-23.8 283.77-23.8L283.77-23.8Q287.52-23.8 290.17-22.35L290.17-22.35 290.17-21.1Q290.17-19.55 289.57-17.9L289.57-17.9 287.57-17.9 287.22-21.1Q285.57-21.35 283.57-21.35L283.57-21.35Q280.72-21.35 279.52-20.48 278.32-19.6 278.32-17.6L278.32-17.6Q278.32-16.3 278.82-15.5 279.32-14.7 280.54-14.13 281.77-13.55 284.07-13L284.07-13Q286.67-12.4 288.19-11.65 289.72-10.9 290.47-9.68 291.22-8.45 291.22-6.45L291.22-6.45Q291.22-3.55 289.24-1.55 287.27 0.45 282.92 0.45L282.92 0.45ZM305.82 0.3Q303.97 0.3 302.62-0.05L302.62-0.05Q299.17-1.95 299.17-4.7L299.17-4.7 299.17-20.85 295.07-20.85 295.47-23.4 299.17-23.4 299.17-29.8 302.07-29.8 302.07-23.4 309.87-23.4 309.47-20.85 302.07-20.85 302.07-5.35Q302.07-4.05 302.52-2.85L302.52-2.85Q303.92-2.4 305.32-2.4L305.32-2.4Q306.22-2.4 307.39-2.68 308.57-2.95 309.52-3.35L309.52-3.35 310.37-0.85Q309.52-0.4 308.22-0.05 306.92 0.3 305.82 0.3L305.82 0.3ZM318.11 9.45Q315.71 9.45 314.01 8.6L314.01 8.6 314.01 7.35Q314.01 5.75 314.46 4.4L314.46 4.4 316.66 4.4 316.66 6.75Q317.56 6.9 318.76 6.9L318.76 6.9Q319.56 6.9 320.96 6.7L320.96 6.7Q322.06 4.05 323.91-1.1L323.91-1.1 320.56-1.1Q317.96-7.45 316.21-12.53 314.46-17.6 312.91-23.3L312.91-23.3 315.91-23.6Q318.66-13.2 322.31-3.75L322.31-3.75 324.81-3.75Q327.96-13.2 330.36-23.6L330.36-23.6 333.41-23.3Q331.41-15.2 329.01-7.63 326.61-0.05 324.21 5.7L324.21 5.7Q323.41 7.55 321.76 8.5 320.11 9.45 318.11 9.45L318.11 9.45ZM342.96 0.35Q341.76-0.1 340.49-1.4 339.21-2.7 339.21-3.8L339.21-3.8 339.21-33.45 342.16-33.45 342.16-4.3Q342.16-3.5 342.24-3.08 342.31-2.65 342.56-2.2L342.56-2.2 343.26-2.2 346.36-3.7 347.66-2.05Q346.86-1.1 345.61-0.45 344.36 0.2 342.96 0.35L342.96 0.35ZM361.76 0.45Q351.66 0.45 351.66-11.55L351.66-11.55Q351.66-17.3 354.23-20.55 356.81-23.8 361.76-23.8L361.76-23.8Q365.86-23.8 368.06-21.35 370.26-18.9 370.26-14.55L370.26-14.55Q370.26-14.05 370.16-12.95L370.16-12.95 367.61-10.4 354.61-10.5Q354.71-6.35 356.48-4.28 358.26-2.2 361.91-2.2L361.91-2.2Q364.11-2.2 365.66-2.68 367.21-3.15 368.86-4.15L368.86-4.15 369.86-1.8Q368.01-0.7 366.18-0.13 364.36 0.45 361.76 0.45L361.76 0.45ZM354.56-12.75L367.16-12.95Q367.46-14.15 367.46-15.35L367.46-15.35Q367.46-18.05 365.96-19.6 364.46-21.15 361.56-21.15L361.56-21.15Q357.86-21.15 356.31-19.1 354.76-17.05 354.56-12.75L354.56-12.75Z" opacity="1" transform="matrix(1,0,0,1,0,0)" fill="#556970" class="slogan-text-1" data-fill-palette-color="secondary" id="text-1"></path></svg></g></svg></g></svg></g></svg></g><g transform="matrix(1,0,0,1,439.2515549650633,0)"><svg viewBox="0 0 212.98437178055508 212.98437178055508" height="212.98437178055508" width="212.98437178055508"><g><svg></svg></g><g id="icon-0"><svg viewBox="0 0 212.98437178055508 212.98437178055508" height="212.98437178055508" width="212.98437178055508"><g><path d="M0 106.492c0-58.814 47.678-106.492 106.492-106.492 58.814 0 106.492 47.678 106.492 106.492 0 58.814-47.678 106.492-106.492 106.492-58.814 0-106.492-47.678-106.492-106.492zM106.492 204.632c54.201 0 98.139-43.939 98.14-98.14 0-54.201-43.939-98.139-98.14-98.139-54.201 0-98.139 43.939-98.139 98.139 0 54.201 43.939 98.139 98.139 98.14z" data-fill-palette-color="accent" fill="#aba944" stroke="transparent"></path></g><g transform="matrix(1,0,0,1,49.6871138787249,68.375296355089)"><svg viewBox="0 0 113.61014402310528 76.23377907037707" height="76.23377907037707" width="113.61014402310528"><g><svg xmlns="http://www.w3.org/2000/svg" xmlns:xlink="http://www.w3.org/1999/xlink" version="1.1" x="0" y="0" viewBox="11.16531 23.33333 76.50134999999999 51.33332999999999" style="enable-background:new 0 0 100 100;" xml:space="preserve" height="76.23377907037707" width="113.61014402310528" class="icon-dxe-0" data-fill-palette-color="accent" id="dxe-0"><polygon points="62,23.33333 62,74.66666 72.01612,74.66666 74.83334,39.60976 77.65055,74.66666 87.66666,74.66666   87.66666,23.33333 " fill="#aba944" data-fill-palette-color="accent"></polygon><polygon points="58.66667,39.22029 51.01361,46.87336 47.93316,43.79823 47.93316,68.66666 21.89881,68.66666   21.89881,43.79823 18.81836,46.87336 11.16531,39.22029 22.20901,28.17123 47.62296,28.17123 " fill="#aba944" data-fill-palette-color="accent"></polygon></svg></g></svg></g></svg></g></svg></g></svg></g><defs></defs></svg><rect width="395.52" height="129.15507299170875" fill="none" stroke="none" visibility="hidden"></rect></g></svg></g></svg>